<svg id="Layer_1" data-name="Layer 1" xmlns="http://www.w3.org/2000/svg" viewBox="0 0 124.72 141.73"><defs><style>.cls-1{fill:#00aad4;}.cls-2{fill:#212121;}.cls-3,.cls-5{fill:#fff;}.cls-4{opacity:0.84;isolation:isolate;}.cls-5{stroke:#f1f2f2;stroke-width:0.5px;}</style></defs><title>spacewalk</title><polygon class="cls-1" points="0 35.43 0 106.3 62.36 141.73 124.72 106.3 124.72 35.43 62.36 0 0 35.43"/><polygon class="cls-2" points="114.7 100.94 62.27 130.71 9.82 100.94 9.82 41.41 62.26 11.65 114.7 41.42 114.7 100.94"/><path id="path8953" class="cls-3" d="M67.85,30.43a13,13,0,0,0-10.18,6.32,11.23,11.23,0,0,0-1.58,4.51s0,0,0,0c-.86,2.31-.61,5.94,3.29,11.14l.49.17c.41.58.85,1.18,1.34,1.8-.53.26-1.15.51-1.81.79l-.06-.32-2.16.77.24.44A10.92,10.92,0,0,0,53.5,59a2.77,2.77,0,0,0-1.45.25c-.66-.16-2.72-.79-2.87-.27s-.08.76.27,1a8.37,8.37,0,0,0,1.37.55c-.94.35-2.12-.17-2.55.79,0,.62.61.56,1,.65a3.44,3.44,0,0,1,1.26.32c-.82.7-1.69,1.55-1.47,1.94.41.71.92.32,1.34.19a3.66,3.66,0,0,1,1.32-.35c-.43.9-.84,2-.5,2.21.61.44.9-.08,1.2-.35.65-.79.84-1.56,1.88-1.92a9.37,9.37,0,0,1,.76,1.09c.25.39,1.45.76,1.15-.5a12.24,12.24,0,0,1-.27-2.43,2.79,2.79,0,0,0,0-.95c1.89-1.62,4.52-2.58,5.9-2.13.2.59.37,1.11.52,1.61a6.94,6.94,0,0,0-.54,2.65,6.83,6.83,0,0,0,0,1.12,6.72,6.72,0,0,0,.57,2.4L62,66.75c-1.37-.61-2.53-1.31-4.32-.82-1.1.3-3.12,2.88-4.63,4.87a7.52,7.52,0,0,0-6.9-4,7,7,0,0,0-5.08,2.36,8.28,8.28,0,0,0,.39,10.7,11.86,11.86,0,0,0,4.18,2.6A10.35,10.35,0,0,0,51.06,86a2.05,2.05,0,0,0,.6.06,6.34,6.34,0,0,0,6.15-6.38c.84-4,2.9-6.36,5-7.33L64,72.11l0-.11c2-.46,3.84.31,4.46,2.1a5.27,5.27,0,0,0-.65,3.29h0l.22,1.32h.32c.73,1.42,2.25,3.15,5,5.71l-.13,0a1,1,0,0,0,.22.14c.85,1.69-3.79,3-3.59,5.49h0l0,0a2.51,2.51,0,0,0,.46,1.18c.2.26.7,1.34,1.37,1.5a14.51,14.51,0,0,0,2.33.3,17.08,17.08,0,0,0,2.4,0,6,6,0,0,0,2-.69,3.66,3.66,0,0,0,1.51-3.44c-.07-.84-.54-1.59-.39-2.44s.54-2.1-.88-3.15c-.93-.68-1.75-2.64-2.19-4.49h.19l-.11-1.53h-.35A7.41,7.41,0,0,1,76,76.15c.11-2.3,1.13-2,2.66-6.16A10.46,10.46,0,0,0,79,66.61h.27l-.33-3.29-.36,0a53.27,53.27,0,0,0-1.58-6,18.12,18.12,0,0,1,8.43,3A16.31,16.31,0,0,1,83.6,63c-1.17,1.32.51,1.64,1.06,1.32a12.81,12.81,0,0,1,1.61-.82c1,1.1.73,2.15,1,3.52.19.52.19,1.32,1.2,1.18.56-.07.75-1.61.82-3a4.92,4.92,0,0,1,1.36,1.26c.42.43.79,1.2,1.73.61.51-.32,0-1.89-.5-3.25a4.61,4.61,0,0,1,1.7.43c.53.16,1.19.58,1.62-.14.1-1.43-1.65-1.55-2.55-2.57a11.51,11.51,0,0,0,2,.22c.55,0,.75-.15.93-1S92.86,59.57,92,59.34a3.72,3.72,0,0,0-2.9-1.51,14.53,14.53,0,0,0-5.91-4.63l.19-.46L80.47,52l0,.39a14.25,14.25,0,0,0-4.13-.2c2.59-2.63,4.35-5.3,4.35-9.62,0-6.31-5.78-11.87-11.71-12.11-.37,0-.73,0-1.09,0Z" transform="translate(-6.32 -2.87)"/><path id="path9001" class="cls-1" d="M61.93,40.48a20.15,20.15,0,0,0-5.84.76c-.88,2.31-.65,6,3.28,11.2l1.06.38c.8.26,8.39.39,10-.26s9-5.82,1.3-10.56C70.42,41.2,66,40.44,61.93,40.48Z" transform="translate(-6.32 -2.87)"/><g id="path9095" class="cls-4"><ellipse class="cls-3" cx="54.77" cy="41.91" rx="2.85" ry="2.79"/></g><path id="path5110" class="cls-5" d="M33.48,98.64a2,2,0,0,0-1.22-.38,1.42,1.42,0,0,0-.88.26,1,1,0,0,0-.38.86q0,.59,1,1.05,1.61.79,1.77.9a2.31,2.31,0,0,1,.18,3.6,2.64,2.64,0,0,1-1.76.59,3.15,3.15,0,0,1-1.78-.53.54.54,0,0,1-.28-.45.31.31,0,0,1,.35-.35.65.65,0,0,1,.36.12,2.8,2.8,0,0,0,1.5.43,1.62,1.62,0,0,0,1.09-.35,1.47,1.47,0,0,0,.47-1.18,1.53,1.53,0,0,0-.94-1.4L31.17,101a1.73,1.73,0,0,1-.94-1.57,1.88,1.88,0,0,1,.62-1.5,2.08,2.08,0,0,1,1.42-.49,2.71,2.71,0,0,1,1.64.54.6.6,0,0,1,.29.48.28.28,0,0,1-.32.31.66.66,0,0,1-.39-.16" transform="translate(-6.32 -2.87)"/><path id="path5112" class="cls-5" d="M38.83,98.13a.37.37,0,0,1,.42-.41h1.88a2.36,2.36,0,0,1,1.83.73,2.29,2.29,0,0,1,.6,1.61,2.36,2.36,0,0,1-.57,1.59,2.15,2.15,0,0,1-1.7.71H39.59V105a.33.33,0,0,1-.37.38.34.34,0,0,1-.38-.38V98.13m2.06.34h-1.3v3.14h1.47a1.76,1.76,0,0,0,1.3-.49,1.46,1.46,0,0,0,.44-1.08A1.43,1.43,0,0,0,42.33,99a2,2,0,0,0-1.44-.5" transform="translate(-6.32 -2.87)"/><path id="path5114" class="cls-5" d="M47.87,103h3.06l-1.51-4.21L47.87,103m3.4.85H47.61L47.23,105q-.13.4-.47.4t-.33-.36a.7.7,0,0,1,0-.22l2.34-6.62a.62.62,0,0,1,1.2,0l2.42,6.62a.72.72,0,0,1,0,.23.31.31,0,0,1-.35.35.36.36,0,0,1-.37-.26l-.48-1.29" transform="translate(-6.32 -2.87)"/><path id="path5116" class="cls-5" d="M61.39,104a.39.39,0,0,1,.28-.12.34.34,0,0,1,.25.1.35.35,0,0,1,.1.26.5.5,0,0,1-.2.37,3.16,3.16,0,0,1-2.21.87,3.34,3.34,0,0,1-2.46-1,4.05,4.05,0,0,1-1.12-3,4.12,4.12,0,0,1,1-2.88,3.39,3.39,0,0,1,2.33-1.15,3.09,3.09,0,0,1,2.43.86.5.5,0,0,1,.2.37.37.37,0,0,1-.1.26.34.34,0,0,1-.25.1.39.39,0,0,1-.28-.12,2.22,2.22,0,0,0-1.63-.67,2.55,2.55,0,0,0-1.9.83A3.36,3.36,0,0,0,57,101.5a3.31,3.31,0,0,0,.87,2.39,2.52,2.52,0,0,0,1.88.82,2.26,2.26,0,0,0,1.66-.68" transform="translate(-6.32 -2.87)"/><path id="path5118" class="cls-5" d="M65.66,98.19q0-.47.42-.47h2.63a.34.34,0,0,1,.38.38.33.33,0,0,1-.38.37H66.41V101h2.21a.34.34,0,0,1,.38.39q0,.36-.38.36H66.41v2.84h2.38q.44,0,.44.38t-.44.37H66.08q-.28,0-.35-.09a.66.66,0,0,1-.07-.37V98.19" transform="translate(-6.32 -2.87)"/><path id="path5120" class="cls-5" d="M73.93,98.09,75,104.43l1.76-6.33a.51.51,0,0,1,.55-.39.5.5,0,0,1,.54.39l1.67,6.33,1-6.32q.07-.42.44-.42a.39.39,0,0,1,.31.14.38.38,0,0,1,.08.35l-1.2,6.67a.58.58,0,0,1-.64.54A.5.5,0,0,1,79,105L77.3,98.8l-1.7,6a.65.65,0,0,1-.68.53q-.53,0-.6-.44l-1.18-6.75a.36.36,0,0,1,.08-.34.39.39,0,0,1,.3-.13q.34,0,.4.38" transform="translate(-6.32 -2.87)"/><path id="path5122" class="cls-5" d="M86.17,103h3.06l-1.51-4.21L86.17,103m3.4.85H85.92L85.53,105q-.13.4-.47.4t-.33-.36a.7.7,0,0,1,0-.22l2.34-6.62a.62.62,0,0,1,1.2,0l2.42,6.62a.72.72,0,0,1,0,.23.31.31,0,0,1-.35.35.36.36,0,0,1-.37-.26l-.48-1.29" transform="translate(-6.32 -2.87)"/><path id="path5124" class="cls-5" d="M94.84,98.09a.33.33,0,0,1,.37-.38.34.34,0,0,1,.38.38v6.53h2A.33.33,0,0,1,98,105a.34.34,0,0,1-.38.38H95.35q-.51,0-.51-.59v-6.7" transform="translate(-6.32 -2.87)"/><path id="path5126" class="cls-5" d="M101.84,98q0-.32.37-.32t.39.32v2.92l3.61-3.12a.37.37,0,0,1,.24-.09.38.38,0,0,1,.29.13.37.37,0,0,1,.13.28.31.31,0,0,1-.1.24l-3.49,3,3.67,3.34a.37.37,0,0,1,.13.28.37.37,0,0,1-.11.27.38.38,0,0,1-.28.11.51.51,0,0,1-.35-.16l-3.73-3.51V105q0,.34-.37.34t-.39-.34V98" transform="translate(-6.32 -2.87)"/></svg>