<?xml version="1.0" encoding="UTF-8" standalone="no"?>
<!-- Created with Inkscape (http://www.inkscape.org/) -->

<svg
   xmlns:dc="http://purl.org/dc/elements/1.1/"
   xmlns:cc="http://creativecommons.org/ns#"
   xmlns:rdf="http://www.w3.org/1999/02/22-rdf-syntax-ns#"
   xmlns:svg="http://www.w3.org/2000/svg"
   xmlns="http://www.w3.org/2000/svg"
   xmlns:xlink="http://www.w3.org/1999/xlink"
   xmlns:sodipodi="http://sodipodi.sourceforge.net/DTD/sodipodi-0.dtd"
   xmlns:inkscape="http://www.inkscape.org/namespaces/inkscape"
   width="2841.574"
   height="1490.986"
   id="svg3684"
   version="1.1"
   inkscape:version="0.91 r13322 custom"
   sodipodi:docname="spacewalk-logo.white.svg">
  <defs
     id="defs3686">
    <inkscape:perspective
       sodipodi:type="inkscape:persp3d"
       inkscape:vp_x="0 : 526.18109 : 1"
       inkscape:vp_y="0 : 1000 : 0"
       inkscape:vp_z="744.09448 : 526.18109 : 1"
       inkscape:persp3d-origin="372.04724 : 350.78739 : 1"
       id="perspective3692" />
    <filter
       height="1.727826"
       y="-0.36391303"
       width="1.7123404"
       x="-0.35617018"
       id="filter9117"
       inkscape:collect="always"
       style="color-interpolation-filters:sRGB">
      <feGaussianBlur
         id="feGaussianBlur9119"
         stdDeviation="0.48786883"
         inkscape:collect="always" />
    </filter>
    <inkscape:perspective
       sodipodi:type="inkscape:persp3d"
       inkscape:vp_x="0 : 526.18109 : 1"
       inkscape:vp_y="0 : 1000 : 0"
       inkscape:vp_z="744.09448 : 526.18109 : 1"
       inkscape:persp3d-origin="372.04724 : 350.78739 : 1"
       id="perspective9" />
    <radialGradient
       r="13.93835"
       fy="337.62668"
       fx="2216.6323"
       cy="337.62668"
       cx="2216.6323"
       gradientTransform="matrix(2.0188261,0.02828854,-0.03921509,2.7985963,-4417.123,-733.84291)"
       gradientUnits="userSpaceOnUse"
       id="radialGradient5229"
       xlink:href="#linearGradient5144"
       inkscape:collect="always" />
    <linearGradient
       gradientTransform="translate(-417,228)"
       y2="335.59448"
       x2="2204.5457"
       y1="348.34448"
       x1="2198"
       gradientUnits="userSpaceOnUse"
       id="linearGradient5224"
       xlink:href="#linearGradient5162"
       inkscape:collect="always" />
    <linearGradient
       gradientTransform="translate(-428.51653,205.53973)"
       y2="455.26434"
       x2="2193.0774"
       y1="452.48694"
       x1="2200.7715"
       gradientUnits="userSpaceOnUse"
       id="linearGradient5217"
       xlink:href="#linearGradient5154"
       inkscape:collect="always" />
    <radialGradient
       r="8.9481392"
       fy="323.5831"
       fx="2218.3242"
       cy="323.5831"
       cx="2218.3242"
       gradientTransform="matrix(2.7070016,-5.1369913e-6,4.1261083e-6,2.1866984,-4203.1077,-157.44376)"
       gradientUnits="userSpaceOnUse"
       id="radialGradient5202"
       xlink:href="#linearGradient5122"
       inkscape:collect="always" />
    <radialGradient
       r="8.9481392"
       fy="323.5831"
       fx="2218.3242"
       cy="323.5831"
       cx="2218.3242"
       gradientTransform="matrix(2.7070016,-5.1369913e-6,4.1261083e-6,2.1866984,-3786.1077,-385.44376)"
       gradientUnits="userSpaceOnUse"
       id="radialGradient5198"
       xlink:href="#linearGradient5122"
       inkscape:collect="always" />
    <linearGradient
       y2="455.26434"
       x2="2193.0774"
       y1="452.48694"
       x1="2200.7715"
       gradientUnits="userSpaceOnUse"
       id="linearGradient5196"
       xlink:href="#linearGradient5154"
       inkscape:collect="always" />
    <linearGradient
       y2="335.59448"
       x2="2204.5457"
       y1="348.34448"
       x1="2198"
       gradientUnits="userSpaceOnUse"
       id="linearGradient5194"
       xlink:href="#linearGradient5162"
       inkscape:collect="always" />
    <radialGradient
       r="13.93835"
       fy="337.62668"
       fx="2216.6323"
       cy="337.62668"
       cx="2216.6323"
       gradientTransform="matrix(2.0188261,0.02828854,-0.03921509,2.7985963,-2245.123,-670.74843)"
       gradientUnits="userSpaceOnUse"
       id="radialGradient5192"
       xlink:href="#linearGradient5144"
       inkscape:collect="always" />
    <inkscape:perspective
       sodipodi:type="inkscape:persp3d"
       inkscape:vp_x="0 : 526.18109 : 1"
       inkscape:vp_y="0 : 1000 : 0"
       inkscape:vp_z="744.09448 : 526.18109 : 1"
       inkscape:persp3d-origin="372.04724 : 350.78739 : 1"
       id="perspective13432" />
    <clipPath
       id="clipPath">
      <path
         id="path13487"
         d="m 329,521.36218 c -2,-8 -2,-184 -2,-184 l 349,-18 -8,89 -339,113 z"
         style="fill:none;stroke:#000000;stroke-width:1px;stroke-linecap:butt;stroke-linejoin:miter;stroke-opacity:1"
         inkscape:connector-curvature="0" />
    </clipPath>
    <filter
       y="-0.5"
       x="-0.5"
       width="2"
       height="2"
       id="filter"
       style="color-interpolation-filters:sRGB">
      <feGaussianBlur
         id="feGaussianBlur17855"
         stdDeviation="5.0" />
    </filter>
    <clipPath
       id="clipPathX">
      <path
         id="path17846"
         d="m -163.90478,339.20854 c -4.70787,5e-5 -8.68274,1.19107 -12.02118,3.6306 -3.72343,2.73919 -5.56683,6.39297 -5.56683,10.97247 -2.5e-4,4.62236 1.88109,8.28107 5.64735,10.8918 1.28392,0.94159 4.72051,2.49666 10.32704,4.67944 3.76654,1.49801 5.64788,3.19967 5.64788,5.08283 0,3.03881 -1.88162,4.51808 -5.64788,4.51808 -2.22545,3e-5 -4.65515,-0.42996 -7.18036,-1.37156 -1.75485,-0.64198 -3.26724,-0.96813 -4.67946,-0.96816 -1.71197,6e-5 -3.13065,0.47277 -4.11457,1.37156 -0.94182,0.85606 -1.37169,1.86256 -1.37169,3.14652 0,1.24116 0.47274,2.47503 1.37169,3.6306 0.89845,1.15562 2.08451,2.02539 3.71102,2.58176 3.72367,1.24115 7.52922,1.85566 11.29523,1.85564 5.17901,-3e-5 9.33819,-1.19595 12.5055,-3.54992 3.63796,-2.7392 5.48627,-6.78995 5.48627,-12.18267 0,-4.79356 -1.92397,-8.59391 -5.64764,-11.37588 -2.05428,-1.49791 -5.56625,-3.09093 -10.48837,-4.76012 -3.72342,-1.24115 -5.56732,-2.39923 -5.56678,-3.46924 -2.9e-4,-2.61075 1.70653,-3.87261 5.0019,-3.87264 2.35404,3e-5 4.77855,0.50577 7.26142,1.53292 0.85562,0.38525 1.65003,0.56479 2.42014,0.56476 1.32705,6e-5 2.37138,-0.51062 3.2272,-1.45224 0.85612,-0.98437 1.29088,-2.09961 1.29088,-3.46923 0,-2.8247 -1.55497,-4.96129 -4.67916,-6.37372 -2.48262,-1.06993 -5.2335,-1.61355 -8.2296,-1.6136 z m 119.80987,0.0807 c -7.06191,3e-5 -12.70563,2.59957 -16.94281,7.90664 -3.80913,4.83638 -5.7284,10.70247 -5.7284,17.50755 0,6.67671 1.80567,12.24471 5.48622,16.78143 4.10864,5.09311 9.75726,7.66462 16.86225,7.6646 3.08132,0 5.60991,-0.25534 7.66448,-0.72612 1.84052,-0.42801 4.27022,-1.222 7.18065,-2.4204 2.01144,-0.85601 2.98527,-2.15574 2.98527,-3.95332 -2.5e-4,-1.41235 -0.61962,-2.71704 -1.7752,-3.87264 -1.15562,-1.19837 -2.41755,-1.85564 -3.87264,-1.85564 -0.38493,3e-5 -0.74408,0.11365 -1.12926,0.24204 -1.88315,0.47079 -3.76449,0.93868 -5.64788,1.45224 -1.41247,0.34242 -2.89647,0.56476 -4.43724,0.56476 -3.68058,-2e-5 -6.61165,-1.56 -8.79427,-4.59876 -1.92598,-2.69638 -2.90446,-5.98609 -2.90446,-9.92363 0,-3.89476 0.94079,-7.22725 2.82394,-9.92364 2.05428,-3.03873 4.8005,-4.6317 8.31016,-4.76012 2.22546,-0.0428 4.14967,0.21256 5.64731,0.72613 3.42419,1.11284 5.15396,1.7322 5.32514,1.77495 0.38497,0.12845 0.82489,0.16139 1.21007,0.16137 1.4125,0 2.6414,-0.50569 3.71131,-1.53292 1.07012,-1.06991 1.61358,-2.30376 1.61358,-3.6306 0,-1.84033 -1.01155,-3.24881 -3.06583,-4.27604 -2.9959,-1.49796 -5.46378,-2.43858 -7.26121,-2.8238 -1.54081,-0.34231 -3.92298,-0.48403 -7.26118,-0.48408 z m 56.39515,1.29088 c -1.45534,3e-5 -2.79758,0.54857 -3.9532,1.53292 -1.11275,0.98445 -1.61358,2.09969 -1.61358,3.46924 0,0.38525 -0.00519,0.82502 0.08056,1.2102 l 9.52048,36.06394 c 0.42806,1.75479 1.2927,3.16815 2.66233,4.19536 1.19816,0.94154 2.61195,1.37156 4.19534,1.37156 1.58363,0 3.07254,-0.43 4.35671,-1.37156 1.32651,-0.98443 2.22446,-2.39778 2.82369,-4.19536 l 7.26142,-22.18699 7.98722,23.23583 c 1.02728,2.996 3.23465,4.4374 6.61573,4.4374 1.62651,2e-5 3.07258,-0.43 4.35675,-1.37156 1.32675,-0.98443 2.19139,-2.35991 2.66253,-4.11468 l 8.71346,-35.98326 c 0.1283,-0.47076 0.24189,-0.90073 0.24189,-1.37156 0,-1.45516 -0.50602,-2.61318 -1.53277,-3.46924 -1.02753,-0.89869 -2.29905,-1.37151 -3.71156,-1.37156 -3.2099,8e-5 -5.19964,1.77749 -5.97004,5.2442 l -5.64784,24.52671 -6.77714,-21.3802 c -1.75457,-5.52109 -4.07092,-8.30998 -6.93823,-8.31003 -2.73951,5e-5 -5.02254,2.5666 -6.7771,7.74527 L 23.59543,370.43171 17.86727,345.905 c -0.81323,-3.50954 -2.65688,-5.32483 -5.56703,-5.32488 z m -151.67833,0.16136 c -0.98441,5e-5 -1.84415,0.4728 -2.74284,1.37156 -0.89924,0.85606 -1.37169,1.79664 -1.37169,2.8238 l 0,37.91958 c 0,1.75479 0.50058,3.13028 1.61358,4.11468 1.11274,0.98434 2.45552,1.45224 3.95345,1.45224 1.45509,0 2.6463,-0.3921 3.63046,-1.29088 1.15562,-1.02716 1.77495,-2.40269 1.77495,-4.11468 l 0,-9.76228 9.92354,0 c 4.15147,6e-5 7.59293,-1.73953 10.24648,-5.16351 2.39691,-3.16718 3.5499,-6.92965 3.5499,-11.2952 0,-4.4083 -1.26687,-8.09996 -3.79208,-11.05315 -2.91015,-3.33834 -6.92323,-5.00211 -12.10175,-5.00216 l -14.684,0 z m 49.13423,0 c -3.50962,5e-5 -6.00543,2.02299 -7.50335,6.13168 l -12.74719,35.8219 c -0.2143,0.55639 -0.3227,1.13788 -0.3227,1.69428 -2.9e-4,1.24115 0.54836,2.29547 1.53277,3.06584 0.98441,0.77042 2.10465,1.12952 3.38857,1.12952 2.43975,-3e-5 4.02755,-1.15805 4.84078,-3.46924 1.15558,-2.82473 1.91643,-4.92835 2.25902,-6.21236 l 17.83015,0 c 1.15562,2.782 2.09641,4.91854 2.82394,6.37372 0.94182,2.09719 2.56265,3.14652 5.00215,3.14652 1.28392,0 2.40907,-0.28335 3.30801,-0.96816 0.8987,-0.72757 1.37144,-1.74395 1.37144,-2.98516 0,-0.64195 -0.14666,-1.37009 -0.40326,-2.09768 l -13.71586,-35.49918 c -1.58339,-4.10869 -4.1551,-6.13163 -7.66447,-6.13168 z m 70.59483,0 c -1.32626,5e-5 -2.48983,0.4728 -3.38828,1.37156 -0.85611,0.85606 -1.21036,1.93836 -1.21036,3.30788 l 0,39.37182 c 0,0.81323 0.39708,1.60719 1.21036,2.4204 0.85558,0.77037 1.64974,1.12952 2.42014,1.12952 l 19.84753,0 c 1.06987,2e-5 1.97763,-0.39212 2.66228,-1.29088 0.68494,-0.94162 0.96818,-2.0667 0.96818,-3.30788 -2.5e-4,-1.41238 -0.43477,-2.52764 -1.29088,-3.46924 -0.94133,-1.11281 -2.20379,-1.69428 -3.87264,-1.69428 l -11.53737,0 0,-8.47139 11.94063,0 c 1.15562,5e-5 2.139,-0.46785 2.82394,-1.45224 0.59898,-0.85596 0.88762,-1.94319 0.88762,-3.2272 0,-1.36957 -0.40199,-2.52271 -1.1298,-3.54992 -0.72777,-1.02718 -1.7011,-1.5329 -2.98502,-1.53292 l -11.53737,0 0,-9.19751 12.50551,0 c 1.28416,5e-5 2.25749,-0.46782 2.98506,-1.45225 0.64206,-0.85595 0.96814,-1.98103 0.96814,-3.30787 0,-1.49794 -0.39708,-2.80261 -1.21007,-3.87264 -0.94182,-1.19835 -2.17076,-1.77491 -3.71127,-1.77496 l -17.34633,0 z m 106.57837,0 c -3.50937,5e-5 -6.00518,2.02299 -7.50335,6.13168 l -12.74719,35.8219 c -0.21405,0.55639 -0.32274,1.13788 -0.32274,1.69428 0,1.24115 0.54836,2.29547 1.53281,3.06584 0.98417,0.77042 2.10466,1.12952 3.38853,1.12952 2.43955,-3e-5 4.02784,-1.15805 4.84083,-3.46924 1.15533,-2.82473 1.91642,-4.92835 2.25902,-6.21236 l 17.74958,0 c 1.15563,2.782 2.17698,4.91854 2.90451,6.37372 0.94157,2.09719 2.56265,3.14652 5.00215,3.14652 1.28416,0 2.40902,-0.28335 3.30801,-0.96816 0.89845,-0.72757 1.37144,-1.74395 1.37144,-2.98516 0,-0.64195 -0.14667,-1.37009 -0.4033,-2.09768 l -13.71583,-35.4992 c -1.58339,-4.10869 -4.15485,-6.13163 -7.66447,-6.13168 z m 31.14246,0 c -1.49793,5e-5 -2.76479,0.4728 -3.79208,1.37156 -1.15562,0.98445 -1.7747,2.28418 -1.7747,3.95332 l 0,38.16162 c -2.5e-4,1.06999 0.46755,2.04847 1.45196,2.90448 1.02757,0.8132 2.15733,1.2102 3.2272,1.2102 l 18.79858,0 c 1.41246,2e-5 2.53736,-0.46787 3.30801,-1.45224 0.77011,-0.9844 1.12926,-2.18032 1.12926,-3.54992 0,-1.4124 -0.39683,-2.64129 -1.21007,-3.71128 -0.77015,-1.07001 -1.85757,-1.61357 -3.2272,-1.6136 l -12.50526,0 0,-32.02994 c 0,-1.62633 -0.50087,-2.93099 -1.61362,-3.87264 -1.0704,-0.94154 -2.33699,-1.37151 -3.79208,-1.37156 z m 30.25513,0 c -1.4125,5e-5 -2.60346,0.4728 -3.63075,1.37156 -1.02675,0.89886 -1.61358,2.16561 -1.61358,3.79196 l 0,37.4355 c 0,1.58357 0.54346,2.81249 1.61358,3.71128 1.06987,0.89876 2.37472,1.29088 3.87264,1.29088 1.4551,2e-5 2.72172,-0.39212 3.79184,-1.29088 1.06987,-0.89882 1.61358,-2.12771 1.61358,-3.71128 l 0,-15.97463 17.83043,18.95979 c 1.24105,1.32674 2.75833,2.017 4.59889,2.017 1.54052,-3e-5 2.91608,-0.51067 4.11454,-1.45224 1.19845,-0.94159 1.77495,-2.09474 1.77495,-3.54992 0,-1.66916 -0.86979,-3.44662 -2.58177,-5.2442 l -15.24838,-15.89395 13.15069,-11.53724 c 1.54081,-1.36954 2.25906,-2.89164 2.25906,-4.51807 2.5e-4,-1.41235 -0.5388,-2.68405 -1.69442,-3.71128 -1.15534,-1.06996 -2.49293,-1.53289 -4.03373,-1.53292 -1.62626,3e-5 -3.07308,0.57171 -4.35696,1.85564 l -16.29709,16.29735 0,-13.15083 c 0,-1.62638 -0.58687,-2.89315 -1.61362,-3.79196 -1.02728,-0.89871 -2.18031,-1.37151 -3.5499,-1.37156 z m -280.84711,9.92363 6.77714,0 c 1.75481,3e-5 3.16806,0.65236 4.19534,1.93632 1.02704,1.24121 1.53282,2.72546 1.53282,4.4374 0,1.66921 -0.51043,3.1205 -1.45201,4.27604 -1.07012,1.28399 -2.47846,1.93635 -4.27615,1.93632 l -6.77714,0 0,-12.58608 z m 42.67987,2.50108 5.6473,15.7326 -11.53708,0 5.88978,-15.7326 z m 177.17316,0 5.72815,15.7326 -11.61792,0 5.88977,-15.7326 z"
         style="font-style:normal;font-variant:normal;font-weight:bold;font-stretch:normal;font-size:69.31380463px;line-height:125%;font-family:MgOpen Modata;-inkscape-font-specification:MgOpen Modata Bold;text-align:start;writing-mode:lr-tb;text-anchor:start;fill:#000000;fill-opacity:1;stroke:none"
         inkscape:connector-curvature="0" />
    </clipPath>
    <filter
       y="-0.5"
       x="-0.5"
       width="2"
       height="2"
       id="filterc"
       style="color-interpolation-filters:sRGB">
      <feGaussianBlur
         id="feGaussianBlur17860"
         stdDeviation="5.0" />
    </filter>
    <radialGradient
       inkscape:collect="always"
       xlink:href="#linearGradient4054"
       id="radialGradient4060"
       cx="-1790.6461"
       cy="908.90436"
       fx="-1790.6461"
       fy="908.90436"
       r="116.59921"
       gradientTransform="matrix(2.3154134,-0.05432156,0.03608328,1.5380206,2322.6437,-588.5165)"
       gradientUnits="userSpaceOnUse" />
    <radialGradient
       inkscape:collect="always"
       xlink:href="#linearGradient4046"
       id="radialGradient4052"
       cx="2515.2004"
       cy="532.45123"
       fx="2515.2004"
       fy="532.45123"
       r="10.628859"
       gradientTransform="matrix(1.1976269,0,0,1.3887416,-502.57534,-196.567)"
       gradientUnits="userSpaceOnUse" />
    <radialGradient
       inkscape:collect="always"
       xlink:href="#linearGradient4038"
       id="radialGradient4044"
       cx="408.1774"
       cy="468.64554"
       fx="408.1774"
       fy="468.64554"
       r="10.783379"
       gradientTransform="matrix(1,0,0,0.7213114,0,130.60615)"
       gradientUnits="userSpaceOnUse" />
    <radialGradient
       inkscape:collect="always"
       xlink:href="#linearGradient4010"
       id="radialGradient4028"
       cx="2533.322"
       cy="524.12878"
       fx="2533.322"
       fy="524.12878"
       r="15.348238"
       gradientTransform="matrix(1.1976269,0,0,1.1596727,-502.57534,-74.914891)"
       gradientUnits="userSpaceOnUse" />
    <radialGradient
       inkscape:collect="always"
       xlink:href="#linearGradient4018"
       id="radialGradient4026"
       cx="-1698.6514"
       cy="602.46912"
       fx="-1698.6514"
       fy="602.46912"
       r="41.80508"
       gradientTransform="matrix(1,0,0,0.92517,0,45.082747)"
       gradientUnits="userSpaceOnUse" />
    <inkscape:perspective
       id="perspective4174"
       inkscape:persp3d-origin="372.04724 : 350.78739 : 1"
       inkscape:vp_z="744.09448 : 526.18109 : 1"
       inkscape:vp_y="0 : 1000 : 0"
       inkscape:vp_x="0 : 526.18109 : 1"
       sodipodi:type="inkscape:persp3d" />
    <inkscape:perspective
       sodipodi:type="inkscape:persp3d"
       inkscape:vp_x="0 : 526.18109 : 1"
       inkscape:vp_y="0 : 1000 : 0"
       inkscape:vp_z="744.09448 : 526.18109 : 1"
       inkscape:persp3d-origin="372.04724 : 350.78739 : 1"
       id="perspective2808" />
    <clipPath
       id="clipPath4985"
       clipPathUnits="userSpaceOnUse">
      <ellipse
         style="display:inline;overflow:visible;visibility:visible;fill:#b3b3b3;fill-opacity:1;fill-rule:nonzero;stroke:#000000;stroke-width:5.93548393;stroke-linecap:butt;stroke-linejoin:miter;stroke-miterlimit:4;stroke-dasharray:none;stroke-dashoffset:0;stroke-opacity:1;marker:none;enable-background:accumulate"
         id="path4987"
         transform="matrix(0.6218193,0,0,0.6218193,1476.0222,137.06939)"
         cx="-1714.2927"
         cy="851.59326"
         rx="116.59921"
         ry="112.04899" />
    </clipPath>
    <clipPath
       id="clipPath4997"
       clipPathUnits="userSpaceOnUse">
      <ellipse
         style="display:inline;overflow:visible;visibility:visible;fill:#b3b3b3;fill-opacity:1;fill-rule:nonzero;stroke:#000000;stroke-width:4;stroke-linecap:butt;stroke-linejoin:miter;stroke-miterlimit:4;stroke-dasharray:none;stroke-dashoffset:0;stroke-opacity:1;marker:none;enable-background:accumulate"
         id="path4999"
         transform="matrix(0.9226996,0,0,0.9226996,2027.681,-269.83256)"
         cx="-1714.2927"
         cy="851.59326"
         rx="116.59921"
         ry="112.04899" />
    </clipPath>
    <clipPath
       id="clipPath5005"
       clipPathUnits="userSpaceOnUse">
      <ellipse
         style="display:inline;overflow:visible;visibility:visible;fill:#b3b3b3;fill-opacity:1;fill-rule:nonzero;stroke:#000000;stroke-width:4;stroke-linecap:butt;stroke-linejoin:miter;stroke-miterlimit:4;stroke-dasharray:none;stroke-dashoffset:0;stroke-opacity:1;marker:none;enable-background:accumulate"
         id="path5007"
         transform="matrix(0.9226996,0,0,0.9226996,2040.4089,-20.93097)"
         cx="-1714.2927"
         cy="851.59326"
         rx="116.59921"
         ry="112.04899" />
    </clipPath>
    <clipPath
       id="clipPath5013"
       clipPathUnits="userSpaceOnUse">
      <ellipse
         style="display:inline;overflow:visible;visibility:visible;fill:#b3b3b3;fill-opacity:1;fill-rule:nonzero;stroke:#000000;stroke-width:4;stroke-linecap:butt;stroke-linejoin:miter;stroke-miterlimit:4;stroke-dasharray:none;stroke-dashoffset:0;stroke-opacity:1;marker:none;enable-background:accumulate"
         id="path5015"
         transform="matrix(0.9226996,0,0,0.9226996,2012.8317,-14.56701)"
         cx="-1714.2927"
         cy="851.59326"
         rx="116.59921"
         ry="112.04899" />
    </clipPath>
    <inkscape:perspective
       sodipodi:type="inkscape:persp3d"
       inkscape:vp_x="0 : 526.18109 : 1"
       inkscape:vp_y="0 : 1000 : 0"
       inkscape:vp_z="744.09448 : 526.18109 : 1"
       inkscape:persp3d-origin="372.04724 : 350.78739 : 1"
       id="perspective5103" />
    <linearGradient
       inkscape:collect="always"
       xlink:href="#linearGradient4560"
       id="linearGradient5183"
       gradientUnits="userSpaceOnUse"
       gradientTransform="matrix(1.1338462,0,0,1.1338462,-32.670034,-8.311573)"
       x1="1760.8287"
       y1="710.10437"
       x2="1760.8287"
       y2="697.49579" />
    <linearGradient
       inkscape:collect="always"
       xlink:href="#linearGradient4706"
       id="linearGradient5172"
       gradientUnits="userSpaceOnUse"
       gradientTransform="translate(30.020417,120.98914)"
       x1="1149.8895"
       y1="-1336.8425"
       x2="1149.8895"
       y2="-1341.8486" />
    <linearGradient
       inkscape:collect="always"
       xlink:href="#linearGradient5162"
       id="linearGradient5168"
       x1="2198"
       y1="348.34448"
       x2="2204.5457"
       y2="335.59448"
       gradientUnits="userSpaceOnUse" />
    <linearGradient
       inkscape:collect="always"
       xlink:href="#linearGradient5154"
       id="linearGradient5160"
       x1="2200.7715"
       y1="452.48694"
       x2="2193.0774"
       y2="455.26434"
       gradientUnits="userSpaceOnUse" />
    <radialGradient
       inkscape:collect="always"
       xlink:href="#linearGradient5144"
       id="radialGradient5152"
       cx="2216.6323"
       cy="337.62668"
       fx="2216.6323"
       fy="337.62668"
       r="13.93835"
       gradientTransform="matrix(2.0188261,0.02828854,-0.03921509,2.7985963,-2245.123,-670.74843)"
       gradientUnits="userSpaceOnUse" />
    <radialGradient
       inkscape:collect="always"
       xlink:href="#linearGradient5122"
       id="radialGradient5138"
       gradientUnits="userSpaceOnUse"
       gradientTransform="matrix(2.7070016,-5.1369913e-6,4.1261083e-6,2.1866984,-3786.1077,-385.44376)"
       cx="2218.3242"
       cy="323.5831"
       fx="2218.3242"
       fy="323.5831"
       r="8.9481392" />
    <linearGradient
       inkscape:collect="always"
       xlink:href="#linearGradient4706"
       id="linearGradient4917"
       gradientUnits="userSpaceOnUse"
       gradientTransform="translate(1.7753158,50.888485)"
       x1="1149.8895"
       y1="-1336.8425"
       x2="1149.8895"
       y2="-1341.8486" />
    <linearGradient
       inkscape:collect="always"
       xlink:href="#linearGradient4560"
       id="linearGradient4915"
       gradientUnits="userSpaceOnUse"
       x1="1760.8287"
       y1="710.10437"
       x2="1760.8287"
       y2="697.49579" />
    <linearGradient
       inkscape:collect="always"
       xlink:href="#linearGradient4560"
       id="linearGradient4913"
       gradientUnits="userSpaceOnUse"
       x1="1760.8287"
       y1="710.10437"
       x2="1760.8287"
       y2="697.49579" />
    <linearGradient
       inkscape:collect="always"
       xlink:href="#linearGradient4560"
       id="linearGradient4911"
       gradientUnits="userSpaceOnUse"
       gradientTransform="matrix(1.5625,0,0,1.5625,-1189.4063,-381.4594)"
       x1="1890.5"
       y1="698.59448"
       x2="1890.5"
       y2="690.59448" />
    <linearGradient
       inkscape:collect="always"
       xlink:href="#linearGradient4560"
       id="linearGradient4907"
       gradientUnits="userSpaceOnUse"
       gradientTransform="matrix(1.5625,0,0,1.5625,-1189.4063,-381.4594)"
       x1="1890.5"
       y1="698.59448"
       x2="1890.5"
       y2="690.59448" />
    <linearGradient
       inkscape:collect="always"
       xlink:href="#linearGradient4560"
       id="linearGradient4905"
       gradientUnits="userSpaceOnUse"
       x1="1760.8287"
       y1="710.10437"
       x2="1760.8287"
       y2="697.49579" />
    <linearGradient
       inkscape:collect="always"
       xlink:href="#linearGradient4706"
       id="linearGradient4874"
       gradientUnits="userSpaceOnUse"
       gradientTransform="translate(1.7753158,50.888485)"
       x1="1149.8895"
       y1="-1336.8425"
       x2="1149.8895"
       y2="-1341.8486" />
    <inkscape:perspective
       id="perspective4782"
       inkscape:persp3d-origin="372.04724 : 350.78739 : 1"
       inkscape:vp_z="744.09448 : 526.18109 : 1"
       inkscape:vp_y="0 : 1000 : 0"
       inkscape:vp_x="0 : 526.18109 : 1"
       sodipodi:type="inkscape:persp3d" />
    <linearGradient
       inkscape:collect="always"
       xlink:href="#linearGradient4706"
       id="linearGradient4712"
       x1="1149.8895"
       y1="-1336.8425"
       x2="1149.8895"
       y2="-1341.8486"
       gradientUnits="userSpaceOnUse"
       gradientTransform="translate(1.7753158,50.888487)" />
    <linearGradient
       inkscape:collect="always"
       xlink:href="#linearGradient3419"
       id="linearGradient3425"
       x1="2653.0842"
       y1="-381.50394"
       x2="2653.0842"
       y2="-436.48074"
       gradientUnits="userSpaceOnUse"
       gradientTransform="matrix(0.6308034,0,0,1.5852803,-7.2609471e-5,1.8792397e-5)" />
    <inkscape:perspective
       sodipodi:type="inkscape:persp3d"
       inkscape:vp_x="0 : 526.18109 : 1"
       inkscape:vp_y="0 : 1000 : 0"
       inkscape:vp_z="744.09448 : 526.18109 : 1"
       inkscape:persp3d-origin="372.04724 : 350.78739 : 1"
       id="perspective10" />
    <linearGradient
       id="linearGradient4019">
      <stop
         id="stop4021"
         offset="0"
         style="stop-color:#aaaaaa;stop-opacity:1;" />
      <stop
         id="stop4023"
         offset="1"
         style="stop-color:#aaaaaa;stop-opacity:0;" />
    </linearGradient>
    <linearGradient
       id="linearGradient3342">
      <stop
         style="stop-color:#ff0000;stop-opacity:1;"
         offset="0"
         id="stop3344" />
      <stop
         style="stop-color:#ff0000;stop-opacity:0;"
         offset="1"
         id="stop3346" />
    </linearGradient>
    <linearGradient
       inkscape:collect="always"
       id="linearGradient3419">
      <stop
         style="stop-color:#dcdcdc;stop-opacity:1;"
         offset="0"
         id="stop3421" />
      <stop
         style="stop-color:#dcdcdc;stop-opacity:0;"
         offset="1"
         id="stop3423" />
    </linearGradient>
    <linearGradient
       id="linearGradient3928">
      <stop
         style="stop-color:#797979;stop-opacity:1;"
         offset="0"
         id="stop3930" />
      <stop
         style="stop-color:#f9f9f9;stop-opacity:0;"
         offset="1"
         id="stop3932" />
    </linearGradient>
    <linearGradient
       inkscape:collect="always"
       id="linearGradient4560">
      <stop
         style="stop-color:#a9a9a9;stop-opacity:1;"
         offset="0"
         id="stop4562" />
      <stop
         style="stop-color:#a9a9a9;stop-opacity:0;"
         offset="1"
         id="stop4564" />
    </linearGradient>
    <linearGradient
       inkscape:collect="always"
       id="linearGradient4706">
      <stop
         style="stop-color:#c0c0c0;stop-opacity:1;"
         offset="0"
         id="stop4708" />
      <stop
         style="stop-color:#c0c0c0;stop-opacity:0;"
         offset="1"
         id="stop4710" />
    </linearGradient>
    <linearGradient
       inkscape:collect="always"
       id="linearGradient5122">
      <stop
         style="stop-color:#ffffff;stop-opacity:1;"
         offset="0"
         id="stop5124" />
      <stop
         style="stop-color:#ffffff;stop-opacity:0;"
         offset="1"
         id="stop5126" />
    </linearGradient>
    <linearGradient
       inkscape:collect="always"
       id="linearGradient5144">
      <stop
         style="stop-color:#ffffff;stop-opacity:1;"
         offset="0"
         id="stop5146" />
      <stop
         style="stop-color:#ffffff;stop-opacity:0;"
         offset="1"
         id="stop5148" />
    </linearGradient>
    <linearGradient
       inkscape:collect="always"
       id="linearGradient5154">
      <stop
         style="stop-color:#c0c0c0;stop-opacity:1;"
         offset="0"
         id="stop5156" />
      <stop
         style="stop-color:#c0c0c0;stop-opacity:0;"
         offset="1"
         id="stop5158" />
    </linearGradient>
    <linearGradient
       id="linearGradient5162">
      <stop
         style="stop-color:#ffffff;stop-opacity:1;"
         offset="0"
         id="stop5164" />
      <stop
         style="stop-color:#747474;stop-opacity:1;"
         offset="1"
         id="stop5166" />
    </linearGradient>
    <linearGradient
       inkscape:collect="always"
       id="linearGradient4010">
      <stop
         style="stop-color:#ffffff;stop-opacity:1;"
         offset="0"
         id="stop4012" />
      <stop
         style="stop-color:#ffffff;stop-opacity:0;"
         offset="1"
         id="stop4014" />
    </linearGradient>
    <linearGradient
       id="linearGradient4018">
      <stop
         style="stop-color:#ffffff;stop-opacity:1;"
         offset="0"
         id="stop4020" />
      <stop
         style="stop-color:#888888;stop-opacity:1;"
         offset="1"
         id="stop4022" />
    </linearGradient>
    <linearGradient
       id="linearGradient4038">
      <stop
         style="stop-color:#ffeeaa;stop-opacity:1;"
         offset="0"
         id="stop4040" />
      <stop
         style="stop-color:#9c7d00;stop-opacity:1;"
         offset="1"
         id="stop4042" />
    </linearGradient>
    <linearGradient
       inkscape:collect="always"
       id="linearGradient4046">
      <stop
         style="stop-color:#000000;stop-opacity:1;"
         offset="0"
         id="stop4048" />
      <stop
         style="stop-color:#000000;stop-opacity:0;"
         offset="1"
         id="stop4050" />
    </linearGradient>
    <linearGradient
       id="linearGradient4054">
      <stop
         style="stop-color:#b3b3b3;stop-opacity:1;"
         offset="0"
         id="stop4056" />
      <stop
         style="stop-color:#2e2e2e;stop-opacity:1;"
         offset="1"
         id="stop4058" />
    </linearGradient>
    <filter
       inkscape:collect="always"
       id="filter5144">
      <feGaussianBlur
         inkscape:collect="always"
         stdDeviation="1.243734"
         id="feGaussianBlur5146" />
    </filter>
  </defs>
  <sodipodi:namedview
     id="base"
     pagecolor="#ffffff"
     bordercolor="#666666"
     borderopacity="1.0"
     inkscape:pageopacity="0.0"
     inkscape:pageshadow="2"
     inkscape:zoom="0.125"
     inkscape:cx="-330.06167"
     inkscape:cy="892.75"
     inkscape:document-units="px"
     inkscape:current-layer="layer2"
     showgrid="false"
     units="ft"
     inkscape:window-width="2560"
     inkscape:window-height="1397"
     inkscape:window-x="2560"
     inkscape:window-y="0"
     inkscape:window-maximized="1"
     fit-margin-top="0"
     fit-margin-left="0"
     fit-margin-right="0"
     fit-margin-bottom="0" />
  <metadata
     id="metadata3689">
    <rdf:RDF>
      <cc:Work
         rdf:about="">
        <dc:format>image/svg+xml</dc:format>
        <dc:type
           rdf:resource="http://purl.org/dc/dcmitype/StillImage" />
        <dc:title></dc:title>
      </cc:Work>
    </rdf:RDF>
  </metadata>
  <g
     inkscape:label="Background"
     inkscape:groupmode="layer"
     id="layer1"
     transform="translate(-199.21307,2220.5899)"
     style="display:none"
     sodipodi:insensitive="true">
    <rect
       style="fill:#2e3436;fill-opacity:1;stroke:none"
       id="rect3694"
       width="3240"
       height="4320"
       x="0"
       y="-3267.675" />
  </g>
  <g
     inkscape:groupmode="layer"
     id="layer2"
     inkscape:label="Spaceman"
     style="opacity:0.93000016"
     transform="translate(-199.21307,-1047.0851)">
    <g
       id="g11984">
      <path
         d="m 324.94755,2284.1823 c -12.71384,-9.4079 -27.71602,-14.112 -45.00659,-14.1122 -13.22234,2e-4 -24.029,3.1787 -32.42,9.5353 -9.4082,7.3742 -14.11227,17.9266 -14.11224,31.6572 -3e-5,14.4938 11.69658,27.4618 35.08988,38.904 39.66672,19.325 61.40717,30.3859 65.22142,33.1828 23.3931,17.0365 35.08971,39.5398 35.08988,67.5099 -1.7e-4,27.7159 -9.53545,49.4564 -28.60588,65.2214 -17.29079,14.4936 -38.9041,21.7404 -64.84,21.7404 -24.15613,0 -46.02372,-6.484 -65.60283,-19.452 -6.86541,-4.5769 -10.29812,-10.1709 -10.29812,-16.7821 0,-8.6453 4.32267,-12.9679 12.968,-12.968 4.32265,10e-5 8.77245,1.5257 13.34942,4.577 17.29062,10.6795 35.7255,16.0193 55.3047,16.0193 16.52775,0 29.87715,-4.3227 40.04824,-12.968 11.44222,-9.9167 17.16339,-24.4103 17.16353,-43.481 -1.4e-4,-22.1218 -11.56962,-39.2853 -34.70847,-51.4906 -21.35914,-9.6623 -42.71818,-19.3247 -64.07718,-28.9873 -23.139,-13.4763 -34.70848,-32.8012 -34.70847,-57.9746 -1e-5,-23.6472 7.62822,-42.0821 22.8847,-55.3047 13.73079,-11.9506 31.14857,-17.926 52.25342,-17.9263 22.37605,3e-4 42.59086,6.6114 60.64447,19.8334 7.11954,5.34 10.67938,11.1883 10.67953,17.5449 -1.5e-4,7.6285 -3.9414,11.4426 -11.82377,11.4424 -4.57707,2e-4 -9.40828,-1.9068 -14.49364,-5.7212"
         style="font-style:normal;font-variant:normal;font-weight:normal;font-stretch:normal;font-size:381.41177368px;line-height:125%;font-family:MgOpen Modata;-inkscape-font-specification:MgOpen Modata;text-align:start;letter-spacing:125.54371643;writing-mode:lr-tb;text-anchor:start;fill:#00aad4;fill-opacity:1;stroke:#ffffff;stroke-width:0.5;stroke-linecap:butt;stroke-linejoin:miter;stroke-miterlimit:4;stroke-opacity:1"
         id="path5110"
         inkscape:connector-curvature="0" />
      <path
         d="m 522.41718,2265.4931 c 0,-10.1707 5.21262,-15.2561 15.63788,-15.2564 l 69.41694,0 c 28.47863,3e-4 50.98191,9.027 67.50988,27.0802 14.74776,16.0195 22.12171,35.8529 22.12189,59.5002 -1.8e-4,22.8849 -6.99272,42.464 -20.97765,58.7375 -15.51088,17.545 -36.36137,26.3175 -62.55153,26.3174 l -63.31436,0 0,96.8786 c -2e-5,9.4081 -4.57696,14.1122 -13.73082,14.1122 -9.40816,0 -14.11223,-4.7041 -14.11223,-14.1122 l 0,-253.2575 m 75.90094,12.5866 -48.05789,0 0,115.9492 54.16048,0 c 20.08758,1e-4 36.10686,-5.9753 48.05788,-17.9263 10.93366,-10.9337 16.40056,-24.1559 16.40071,-39.6669 -1.5e-4,-15.7648 -5.84846,-29.1142 -17.54495,-40.0482 -12.96811,-12.2049 -30.64017,-18.3075 -53.01623,-18.3078"
         style="font-style:normal;font-variant:normal;font-weight:normal;font-stretch:normal;font-size:381.41177368px;line-height:125%;font-family:MgOpen Modata;-inkscape-font-specification:MgOpen Modata;text-align:start;letter-spacing:125.54371643;writing-mode:lr-tb;text-anchor:start;fill:#00aad4;fill-opacity:1;stroke:#ffffff;stroke-width:0.5;stroke-linecap:butt;stroke-linejoin:miter;stroke-miterlimit:4;stroke-opacity:1"
         id="path5112"
         inkscape:connector-curvature="0" />
      <path
         d="m 855.92566,2444.7567 112.89789,0 -55.68612,-155.2346 -57.21177,155.2346 m 125.48447,31.2757 -135.01976,0 -14.11224,42.3367 c -3.30559,9.9168 -9.02677,14.8751 -17.16353,14.8751 -8.13679,0 -12.20518,-4.4498 -12.20518,-13.3494 0,-2.2885 0.50855,-4.9583 1.52565,-8.0097 l 86.19906,-244.1035 c 4.32258,-11.4421 11.69653,-17.1632 22.12188,-17.1635 10.42514,3e-4 17.79909,5.7214 22.12189,17.1635 l 89.2504,244.1035 c 1.0168,3.0514 1.5254,5.8484 1.5256,8.3911 -2e-4,8.6453 -4.3229,12.968 -12.968,12.968 -6.8656,0 -11.4426,-3.1784 -13.73082,-9.5353 l -17.54495,-47.6765"
         style="font-style:normal;font-variant:normal;font-weight:normal;font-stretch:normal;font-size:381.41177368px;line-height:125%;font-family:MgOpen Modata;-inkscape-font-specification:MgOpen Modata;text-align:start;letter-spacing:125.54371643;writing-mode:lr-tb;text-anchor:start;fill:#00aad4;fill-opacity:1;stroke:#ffffff;stroke-width:0.5;stroke-linecap:butt;stroke-linejoin:miter;stroke-miterlimit:4;stroke-opacity:1"
         id="path5114"
         inkscape:connector-curvature="0" />
      <path
         d="m 1354.7225,2482.8979 c 3.0511,-3.0513 6.4838,-4.5769 10.2981,-4.577 3.5596,10e-5 6.6109,1.2714 9.1539,3.8141 2.5425,2.5428 3.8139,5.7212 3.8141,9.5353 -2e-4,4.8313 -2.4158,9.4082 -7.2468,13.7308 -23.1392,21.3591 -50.3465,32.0386 -81.6221,32.0386 -35.09,0 -65.3487,-12.8408 -90.776,-38.5226 -27.4617,-27.9701 -41.1925,-64.4584 -41.1925,-109.4651 0,-42.9722 12.7137,-78.4435 38.1412,-106.4139 23.3932,-25.6815 51.999,-39.7937 85.8176,-42.3367 34.3269,-2.5425 64.2041,8.0099 89.6318,31.6572 4.831,4.3229 7.2466,8.8998 7.2468,13.7308 -2e-4,3.5601 -1.2716,6.7385 -3.8141,9.5353 -2.543,2.5429 -5.5943,3.8143 -9.1539,3.8141 -3.8143,2e-4 -7.247,-1.5254 -10.2981,-4.577 -16.528,-16.5275 -36.6157,-24.7915 -60.2631,-24.7917 -27.2075,2e-4 -50.6007,10.1712 -70.1797,30.5129 -21.6134,22.6307 -32.4201,52.3808 -32.42,89.2504 -10e-5,36.3613 10.6794,65.73 32.0385,88.1061 19.3248,20.0877 42.4638,30.1316 69.417,30.1315 24.1559,1e-4 44.625,-8.391 61.4073,-25.1731"
         style="font-style:normal;font-variant:normal;font-weight:normal;font-stretch:normal;font-size:381.41177368px;line-height:125%;font-family:MgOpen Modata;-inkscape-font-specification:MgOpen Modata;text-align:start;letter-spacing:125.54371643;writing-mode:lr-tb;text-anchor:start;fill:#00aad4;fill-opacity:1;stroke:#ffffff;stroke-width:0.5;stroke-linecap:butt;stroke-linejoin:miter;stroke-miterlimit:4;stroke-opacity:1"
         id="path5116"
         inkscape:connector-curvature="0" />
      <path
         d="m 1512.138,2267.7816 c 0,-11.4421 5.2126,-17.1632 15.6379,-17.1635 l 96.8786,0 c 9.408,3e-4 14.1121,4.7043 14.1122,14.1122 -10e-5,9.1542 -4.7042,13.7311 -14.1122,13.7308 l -84.6734,0 0,93.8273 81.6221,0 c 9.408,2e-4 14.1121,4.8314 14.1122,14.4937 -10e-5,8.8997 -4.7042,13.3495 -14.1122,13.3494 l -81.6221,0 0,104.8882 87.7247,0 c 10.9336,1e-4 16.4005,4.7041 16.4007,14.1123 -2e-4,9.1539 -5.4671,13.7308 -16.4007,13.7308 l -99.9299,0 c -6.8654,0 -11.1881,-1.1442 -12.968,-3.4327 -1.7799,-2.2885 -2.6699,-6.8654 -2.6699,-13.7308 l 0,-247.9177"
         style="font-style:normal;font-variant:normal;font-weight:normal;font-stretch:normal;font-size:381.41177368px;line-height:125%;font-family:MgOpen Modata;-inkscape-font-specification:MgOpen Modata;text-align:start;letter-spacing:125.54371643;writing-mode:lr-tb;text-anchor:start;fill:#00aad4;fill-opacity:1;stroke:#ffffff;stroke-width:0.5;stroke-linecap:butt;stroke-linejoin:miter;stroke-miterlimit:4;stroke-opacity:1"
         id="path5118"
         inkscape:connector-curvature="0" />
      <path
         d="m 1817.5293,2263.9675 39.2854,233.8054 64.84,-233.424 c 2.7969,-9.6621 9.5352,-14.4934 20.2148,-14.4936 10.6794,2e-4 17.2905,4.8315 19.8334,14.4936 l 61.7887,233.424 38.5226,-233.0426 c 1.7797,-10.425 7.2466,-15.6376 16.4007,-15.6379 4.5767,3e-4 8.3908,1.7802 11.4424,5.3398 3.051,3.3058 4.0681,7.6285 3.0513,12.968 l -44.2438,246.0106 c -2.2887,13.2223 -10.1712,19.8334 -23.6475,19.8334 -10.934,0 -17.6723,-4.5769 -20.2148,-13.7308 l -62.933,-229.2285 -62.5515,223.1259 c -3.5599,12.968 -11.951,19.452 -25.1732,19.452 -12.968,0 -20.342,-5.4669 -22.1219,-16.4007 l -43.4809,-249.0619 c -1.0171,-5.3395 0,-9.535 3.0513,-12.5866 3.0513,-3.3053 6.7383,-4.9581 11.0609,-4.9583 8.3911,2e-4 13.3494,4.7043 14.8751,14.1122"
         style="font-style:normal;font-variant:normal;font-weight:normal;font-stretch:normal;font-size:381.41177368px;line-height:125%;font-family:MgOpen Modata;-inkscape-font-specification:MgOpen Modata;text-align:start;letter-spacing:125.54371643;writing-mode:lr-tb;text-anchor:start;fill:#00aad4;fill-opacity:1;stroke:#ffffff;stroke-width:0.5;stroke-linecap:butt;stroke-linejoin:miter;stroke-miterlimit:4;stroke-opacity:1"
         id="path5120"
         inkscape:connector-curvature="0" />
      <path
         d="m 2269.1682,2444.7567 112.8978,0 -55.6861,-155.2346 -57.2117,155.2346 m 125.4844,31.2757 -135.0197,0 -14.1123,42.3367 c -3.3056,9.9168 -9.0267,14.8751 -17.1635,14.8751 -8.1368,0 -12.2052,-4.4498 -12.2052,-13.3494 0,-2.2885 0.5086,-4.9583 1.5257,-8.0097 l 86.199,-244.1035 c 4.3226,-11.4421 11.6966,-17.1632 22.1219,-17.1635 10.4251,3e-4 17.7991,5.7214 22.1219,17.1635 l 89.2503,244.1035 c 1.0169,3.0514 1.5255,5.8484 1.5257,8.3911 -2e-4,8.6453 -4.3229,12.968 -12.968,12.968 -6.8656,0 -11.4426,-3.1784 -13.7308,-9.5353 l -17.545,-47.6765"
         style="font-style:normal;font-variant:normal;font-weight:normal;font-stretch:normal;font-size:381.41177368px;line-height:125%;font-family:MgOpen Modata;-inkscape-font-specification:MgOpen Modata;text-align:start;letter-spacing:125.54371643;writing-mode:lr-tb;text-anchor:start;fill:#00aad4;fill-opacity:1;stroke:#ffffff;stroke-width:0.5;stroke-linecap:butt;stroke-linejoin:miter;stroke-miterlimit:4;stroke-opacity:1"
         id="path5122"
         inkscape:connector-curvature="0" />
      <path
         d="m 2589.0173,2263.9675 c 0,-9.4079 4.5769,-14.112 13.7308,-14.1122 9.4081,2e-4 14.1122,4.7043 14.1122,14.1122 l 0,241.0522 72.8497,0 c 9.408,1e-4 14.1121,4.577 14.1122,13.7309 -1e-4,9.4081 -4.7042,14.1122 -14.1122,14.1122 l -82.0036,0 c -12.4594,0 -18.6891,-7.2468 -18.6891,-21.7405 l 0,-247.1548"
         style="font-style:normal;font-variant:normal;font-weight:normal;font-stretch:normal;font-size:381.41177368px;line-height:125%;font-family:MgOpen Modata;-inkscape-font-specification:MgOpen Modata;text-align:start;letter-spacing:125.54371643;writing-mode:lr-tb;text-anchor:start;fill:#00aad4;fill-opacity:1;stroke:#ffffff;stroke-width:0.5;stroke-linecap:butt;stroke-linejoin:miter;stroke-miterlimit:4;stroke-opacity:1"
         id="path5124"
         inkscape:connector-curvature="0" />
      <path
         d="m 2847.1613,2261.679 c 0,-7.8822 4.577,-11.8235 13.7308,-11.8237 9.6624,2e-4 14.4937,3.9415 14.4937,11.8237 l 0,107.5581 133.1127,-115.1863 c 2.7969,-2.2882 5.721,-3.4324 8.7725,-3.4327 4.0682,3e-4 7.628,1.653 10.6795,4.9583 3.3054,3.0516 4.9582,6.4843 4.9583,10.2982 -1e-4,3.5601 -1.2715,6.4842 -3.8141,8.7724 l -128.9171,110.228 135.4011,123.196 c 3.3054,3.0513 4.9582,6.484 4.9584,10.2981 -2e-4,3.8142 -1.3987,7.1197 -4.1955,9.9168 -2.7973,2.797 -6.23,4.1955 -10.2982,4.1955 -4.5771,0 -8.8997,-1.9071 -12.968,-5.7212 l -137.6896,-129.68 0,123.5774 c 0,8.3911 -4.577,12.5866 -13.7308,12.5866 -9.6625,0 -14.4937,-4.1955 -14.4937,-12.5866 l 0,-258.9786"
         style="font-style:normal;font-variant:normal;font-weight:normal;font-stretch:normal;font-size:381.41177368px;line-height:125%;font-family:MgOpen Modata;-inkscape-font-specification:MgOpen Modata;text-align:start;letter-spacing:125.54371643;writing-mode:lr-tb;text-anchor:start;fill:#00aad4;fill-opacity:1;stroke:#ffffff;stroke-width:0.5;stroke-linecap:butt;stroke-linejoin:miter;stroke-miterlimit:4;stroke-opacity:1"
         id="path5126"
         inkscape:connector-curvature="0" />
      <path
         transform="matrix(21.76426,0,0,21.76426,-22254.514,-28210.82)"
         style="opacity:0.82417585;fill:#60605b;fill-opacity:1;fill-rule:evenodd;stroke:none;filter:url(#filter5144)"
         d="m 1097.2046,1348.0679 c -3.1765,0.1561 -5.2686,2.3714 -6.1043,3.7862 -0.3306,0.5597 -0.767,1.3976 -0.9273,2.5499 -0.01,0.041 0.01,0.087 0,0.1288 -0.01,0 -0.019,0 -0.026,0 -0.524,1.3834 -0.3682,3.5633 1.9832,6.6966 0.1746,0.065 0.1751,0.064 0.2834,0.1031 0.2429,0.3468 0.5071,0.7154 0.7985,1.0817 -0.3216,0.1587 -0.6832,0.2962 -1.0819,0.4636 l -0.051,-0.1803 -1.2879,0.4637 0.1546,0.2833 c -0.8572,0.4223 -1.7175,0.9473 -2.3439,1.7514 -0.2963,-0.027 -0.5842,0 -0.8499,0.1288 -0.3931,-0.098 -1.6379,-0.4685 -1.7257,-0.1545 -0.1001,0.3583 -0.056,0.446 0.1545,0.5666 0.1049,0.06 0.4566,0.2224 0.8242,0.3348 -0.5641,0.2093 -1.2621,-0.1116 -1.5195,0.4637 0.017,0.3715 0.3549,0.3635 0.5923,0.4121 0.2908,0.011 0.4668,0.071 0.747,0.1802 -0.4929,0.4163 -0.9824,0.9279 -0.85,1.1591 0.2425,0.4236 0.5454,0.181 0.7984,0.103 0.2967,-0.1565 0.4475,-0.1486 0.7728,-0.206 -0.2562,0.5405 -0.4849,1.169 -0.2834,1.3135 0.3631,0.2606 0.5146,-0.045 0.6955,-0.206 0.3903,-0.4732 0.5119,-0.9169 1.1332,-1.1333 0.1532,0.1644 0.38,0.552 0.4379,0.6439 0.1473,0.2338 0.8747,0.4466 0.6954,-0.3091 -0.1196,-0.5037 -0.149,-1.0914 -0.1546,-1.4423 0.024,-0.1743 0.031,-0.3707 0,-0.5409 1.1307,-0.9713 2.7056,-1.5828 3.5287,-1.3136 0.1206,0.3604 0.2172,0.698 0.3091,1.0045 -0.19,0.4547 -0.3217,0.9589 -0.3349,1.4939 0,0.017 0,0.034 0,0.051 0,0.096 -0.01,0.1857 0,0.2833 -0.01,0.1292 -0.032,0.2537 -0.026,0.3863 0.026,0.5258 0.1681,1.0114 0.3606,1.4424 l -0.2319,-0.077 c -0.8088,-0.3607 -1.4903,-0.7563 -2.5498,-0.4636 -0.683,0.1886 -1.8638,1.7038 -2.7817,2.9105 -0.7979,-1.5071 -2.3804,-2.4919 -4.121,-2.4211 -1.1989,0.049 -2.295,0.5506 -3.0393,1.4166 -0.7443,0.866 -1.106,2.0654 -1.056,3.2968 0.05,1.2182 0.5268,2.3367 1.2878,3.1165 0.6912,0.7082 1.5388,1.155 2.4984,1.5454 0.9027,0.9786 1.7282,1.7758 3.2453,2.1635 0.1181,0.03 0.2393,0.031 0.3606,0.026 1.979,-0.08 3.6734,-1.6785 3.6574,-3.7604 0.4947,-2.427 1.7432,-3.8487 3.0134,-4.4301 l 0.6698,-0.1803 -0.026,-0.052 c 1.2011,-0.28 2.3068,0.1889 2.6786,1.2621 -0.3309,0.7198 -0.4877,1.2977 -0.3605,1.9575 l -0.052,0 0.1289,0.7984 0.206,0 c 0.4363,0.852 1.3394,1.8837 2.9878,3.4256 l -0.077,0 c 0,0 0.024,0.037 0.1031,0.077 0.5191,1.0097 -2.2446,1.8045 -2.1378,3.2711 6e-4,0.01 -9e-4,0.017 0,0.026 0.021,0.2173 0.1151,0.446 0.2833,0.6954 0.1193,0.1527 0.4248,0.8095 0.8242,0.9014 0.3995,0.092 0.8898,0.1515 1.3909,0.1803 0.501,0.029 0.9926,0.037 1.4165,0 0.4242,-0.037 1.0421,-0.3075 1.2106,-0.4121 0.618,-0.3287 1.0208,-1.3546 0.9015,-2.0605 -0.042,-0.503 -0.32,-0.9577 -0.2318,-1.4681 0.087,-0.5149 0.3364,-1.252 -0.5151,-1.8802 -0.5577,-0.4113 -1.0535,-1.5891 -1.3136,-2.7044 l 0.103,0 -0.077,-0.9015 -0.1803,0 c -0.028,-0.2529 -0.061,-0.492 -0.051,-0.6954 0.067,-1.3784 0.6779,-1.2158 1.5968,-3.6832 0.1682,-0.5775 0.2128,-1.2633 0.1803,-2.009 l 0.1804,0 -0.2061,-1.9832 -0.2061,0.026 c -0.2145,-1.1401 -0.554,-2.3681 -0.953,-3.6317 1.3094,0.1049 3.0928,0.5583 5.0483,1.8287 -0.2339,0.4203 -0.6508,1.1051 -1.1075,1.6227 -0.6988,0.7919 0.3178,0.9848 0.6439,0.7984 0.1282,-0.073 0.664,-0.3901 0.9529,-0.4893 0.6063,0.657 0.4532,1.2688 0.6182,2.0862 0.1134,0.3093 0.1192,0.8016 0.7211,0.7212 0.3342,-0.045 0.4505,-0.9647 0.4894,-1.7772 0.3531,0.2768 0.543,0.3694 0.7985,0.747 0.2533,0.2553 0.4683,0.7137 1.0303,0.3606 0.3066,-0.1928 0.041,-1.1171 -0.2834,-1.9318 0.4061,0.047 0.6492,0.084 1.0046,0.2576 0.3157,0.093 0.7198,0.3574 0.9786,-0.077 0.06,-0.8549 -0.9771,-0.9336 -1.5196,-1.5454 0.5127,0.1002 1.0207,0.1339 1.1848,0.1288 0.3292,-0.01 0.4575,-0.099 0.5667,-0.5924 0.096,-0.4329 -1.6296,-0.7677 -2.1636,-0.9015 -0.3882,-0.5233 -1.0066,-0.8697 -1.6999,-0.9015 -1.1127,-1.4446 -2.3876,-2.2826 -3.5802,-2.7817 l 0.1289,-0.2833 -1.7257,-0.4636 -0.026,0.2576 c -1.0722,-0.2097 -1.9513,-0.1829 -2.4726,-0.1288 1.5476,-1.571 2.6015,-3.187 2.6015,-5.7694 0,-3.7737 -3.4535,-7.0981 -7.0058,-7.2376 -0.2215,-0.01 -0.4322,-0.01 -0.6439,0 z"
         id="path7633"
         inkscape:export-filename="/home/duffy/Desktop/spacewalk_y.png"
         inkscape:export-xdpi="90"
         inkscape:export-ydpi="90"
         inkscape:connector-curvature="0" />
      <path
         id="path8953"
         d="m 1626.0511,1129.2068 c -66.5791,3.2711 -110.2055,49.6269 -127.7214,79.2807 -7.204,12.1966 -16.7846,30.8987 -19.7707,56.5456 -0.016,0.2177 -0.2176,0.2611 -0.2176,0.3917 -10.7255,29.0249 -7.6349,74.547 41.3195,139.7788 3.7021,1.3929 3.8522,1.3495 6.1288,2.1765 5.1037,7.2823 10.684,14.8499 16.8063,22.5391 -6.7034,3.2885 -14.4602,6.4096 -22.7372,9.8853 l -0.7834,-3.9546 -27.0857,9.6894 2.9643,5.5348 c -17.9054,8.8189 -35.7064,20.0252 -48.8346,36.775 -6.2681,-0.6094 -12.5689,0.5006 -18.1884,3.1623 -8.2378,-2.0457 -34.1437,-9.9419 -35.9829,-3.3603 -2.0893,7.5086 -1.0446,9.5327 3.3605,12.0595 2.1981,1.2623 9.4957,4.5639 17.2002,6.9211 -11.8245,4.3832 -26.6307,-2.1765 -32.0283,9.8852 0.3701,7.7874 7.6763,7.0865 12.6538,8.1051 6.094,0.2177 9.9441,1.6541 15.8161,3.9546 -10.3293,8.7253 -21.1614,19.4724 -18.3865,24.3171 5.082,8.88 11.5025,4.009 16.8064,2.3745 6.2181,-3.2819 9.7918,-3.1471 16.6061,-4.3506 -5.3692,11.3305 -10.5513,24.648 -6.3268,27.6797 7.6109,5.4607 11.2368,-0.9576 15.026,-4.3506 8.1812,-9.918 10.5034,-19.5835 23.5271,-24.1193 3.2125,3.4454 8.2792,11.7136 9.4915,13.642 3.0861,4.8991 18.1905,9.5109 14.4319,-6.3269 -2.5095,-10.5599 -3.2451,-23.092 -3.3605,-30.4482 0.5441,-3.9654 0.4135,-8.0094 -0.3917,-11.8616 23.6926,-20.3104 56.7133,-32.3263 73.9441,-26.6916 2.4571,7.3453 4.6335,13.8899 6.5227,20.1667 -4.2484,10.0399 -6.6228,21.3117 -6.7208,33.2144 -0.5223,4.5794 -0.6312,9.2215 -0.3918,14.0381 0.5224,10.9168 3.1493,21.0786 7.117,30.0521 l -3.9524,-1.1753 c -17.1851,-7.6154 -31.7323,-16.4799 -54.1734,-10.2815 -13.7964,3.8109 -39.093,36.1135 -58.1259,61.0923 -16.7236,-31.5886 -50.1122,-52.097 -86.5956,-50.6127 -25.129,1.0229 -48.062,11.5044 -63.6626,29.6559 -15.6006,18.1515 -23.192,42.9931 -22.143,68.8013 1.0447,25.5359 11.1325,49.0978 27.0856,65.4428 14.4885,14.8432 32.2786,24.4391 52.3931,32.6225 18.9197,20.5106 36.0133,36.9492 67.8131,45.0759 2.4746,0.6312 4.9709,0.8923 7.513,0.7835 41.8636,-1.6975 78.1272,-35.8435 77.1065,-80.0705 10.5055,-50.2343 36.4333,-79.825 62.8726,-91.9347 l 14.4318,-3.3625 -0.3917,-1.3929 c 25.0637,-5.7284 48.1861,3.8893 55.9516,26.2957 -6.9298,15.0738 -10.7559,27.51 -8.1051,41.3216 l -0.5876,0 2.7684,16.6061 3.9546,0 c 9.1627,17.7879 28.1782,39.4737 62.4764,71.5717 l -1.5887,0.2177 c 0,0 0.9141,0.8705 2.7662,1.7846 10.6754,21.155 -47.531,38.0069 -45.076,68.8035 l -0.3917,0 c 0,0 0.3482,0.2175 0.3917,0.2175 0.4135,4.614 2.1547,9.5241 5.7328,14.8281 2.5006,3.1994 8.8297,16.8542 17.2002,18.7824 8.3749,1.9372 18.7586,3.1516 29.2621,3.7566 10.5012,0.6095 21.1636,0.5659 30.0521,-0.2177 8.8885,-0.7616 21.5749,-6.5074 25.1073,-8.7014 12.954,-6.8904 21.4813,-28.3064 18.9806,-43.0996 -0.8706,-10.5427 -6.7905,-19.9471 -4.9427,-30.6442 1.8282,-10.7928 6.7774,-26.3761 -11.0715,-39.5413 -11.6221,-8.5729 -22.0036,-33.0881 -27.4817,-56.3475 l 2.3723,0 -1.3929,-19.1789 -4.3485,0 c -0.5877,-5.2821 -1.0012,-10.1833 -0.7836,-14.4317 1.393,-28.8899 14.1512,-25.5882 33.4126,-77.3046 3.5562,-12.2119 4.8708,-26.5132 4.1504,-42.3097 l 3.3626,0 -4.1527,-41.3216 -4.5465,0.3917 c -4.5008,-23.81 -11.4437,-49.3505 -19.7706,-75.7221 27.4599,2.2003 64.7574,11.2934 105.7721,37.9611 -4.9014,8.8102 -13.3698,23.1659 -22.933,34.0046 -14.6474,16.5996 6.4117,20.5151 13.2457,16.6082 2.6879,-1.5452 14.112,-8.2007 20.1668,-10.2813 12.7081,13.7723 9.1932,26.9572 12.6537,44.09 2.3767,6.4813 2.4072,16.5125 15.0261,14.828 7.0037,-0.9359 9.4652,-20.1406 10.2792,-37.1691 7.3999,5.8023 11.6482,7.9026 17.0044,15.8161 5.3105,5.3518 9.9703,15.1131 21.7469,7.711 6.427,-4.0393 0.4788,-23.6532 -6.3269,-40.7274 8.512,1.0012 13.9052,1.6976 21.3529,5.3366 6.6185,1.9589 14.9412,7.3325 20.3648,-1.7846 1.2406,-17.9164 -20.6608,-19.4029 -32.0282,-32.2264 10.745,2.111 21.6684,2.875 25.1072,2.7684 6.8993,-0.2176 9.376,-1.9151 11.6657,-12.2576 2.0023,-9.0734 -34.0851,-16.3754 -45.2763,-19.1787 -8.3205,-11.2151 -21.4378,-18.6062 -36.3767,-18.9784 -23.1921,-29.978 -49.3048,-47.6985 -74.1421,-58.1279 l 2.3723,-5.7327 -35.9807,-9.6872 -0.5877,4.9426 c -22.1538,-4.3639 -40.747,-3.6696 -51.7989,-2.5705 32.4657,-32.9444 54.5673,-66.4441 54.5673,-120.6022 0,-79.0958 -72.4401,-148.9177 -146.8978,-151.8406 -4.6423,-0.2177 -9.2041,-0.2177 -13.6418,0 z"
         style="fill:#ffffff;fill-opacity:1;fill-rule:evenodd;stroke:none"
         inkscape:connector-curvature="0" />
      <path
         style="fill:#00aad4;fill-opacity:1;stroke:none"
         d="m 1551.8437,1255.2696 c -25.6645,0.2613 -55.6186,2.9948 -73.252,9.474 -10.9844,28.9965 -8.142,74.7604 41.1431,140.434 8.0114,2.9948 13.2588,4.8098 13.2588,4.8098 10.0246,3.2842 105.1867,4.9319 125.2337,-3.2777 20.0449,-8.2094 112.4843,-72.9667 16.2928,-132.4921 -16.2101,-10.0312 -71.8112,-19.4443 -122.6764,-18.948 z"
         id="path9001"
         sodipodi:nodetypes="ccccssc"
         inkscape:connector-curvature="0" />
      <ellipse
         style="display:inline;overflow:visible;visibility:visible;opacity:0.8427948;fill:#ffffff;fill-opacity:1;fill-rule:nonzero;stroke:none;stroke-width:4;marker:none;filter:url(#filter9117);enable-background:accumulate"
         id="path9095"
         transform="matrix(21.76426,0,0,21.76426,613.38395,-53.389138)"
         cx="42.631695"
         cy="62.602184"
         rx="1.6437159"
         ry="1.6087432"
         d="m 44.275411,62.602184 a 1.6437159,1.6087432 0 0 1 -1.643716,1.608743 1.6437159,1.6087432 0 0 1 -1.643716,-1.608743 1.6437159,1.6087432 0 0 1 1.643716,-1.608743 1.6437159,1.6087432 0 0 1 1.643716,1.608743 z" />
    </g>
  </g>
</svg>
